<?xml version="1.0" encoding="UTF-8" standalone="no"?>
<!-- Created with Inkscape (http://www.inkscape.org/) -->

<svg
   width="200"
   height="369"
   id="svg2"
   version="1.1"
   inkscape:version="1.4.2 (ebf0e940d0, 2025-05-08)"
   sodipodi:docname="muscle-20.svg"
   xml:space="preserve"
   xmlns:inkscape="http://www.inkscape.org/namespaces/inkscape"
   xmlns:sodipodi="http://sodipodi.sourceforge.net/DTD/sodipodi-0.dtd"
   xmlns="http://www.w3.org/2000/svg"
   xmlns:svg="http://www.w3.org/2000/svg"
   xmlns:rdf="http://www.w3.org/1999/02/22-rdf-syntax-ns#"
   xmlns:cc="http://creativecommons.org/ns#"
   xmlns:dc="http://purl.org/dc/elements/1.1/"><defs
     id="defs4"><linearGradient
       id="swatch84"
       inkscape:swatch="solid"><stop
         style="stop-color:#000000;stop-opacity:1;"
         offset="0"
         id="stop84" /></linearGradient></defs><sodipodi:namedview
     id="base"
     pagecolor="#ffffff"
     bordercolor="#666666"
     borderopacity="1.0"
     inkscape:pageopacity="0"
     inkscape:pageshadow="2"
     inkscape:zoom="5.6"
     inkscape:cx="81.875"
     inkscape:cy="192.41072"
     inkscape:document-units="px"
     inkscape:current-layer="layer1"
     showgrid="false"
     fit-margin-top="0"
     fit-margin-left="0"
     fit-margin-right="0"
     fit-margin-bottom="0"
     inkscape:window-width="1920"
     inkscape:window-height="1016"
     inkscape:window-x="0"
     inkscape:window-y="0"
     inkscape:window-maximized="1"
     height="524.41px"
     inkscape:showpageshadow="2"
     inkscape:pagecheckerboard="0"
     inkscape:deskcolor="#d1d1d1" /><metadata
     id="metadata7"><rdf:RDF><cc:Work
         rdf:about=""><dc:format>image/svg+xml</dc:format><dc:type
           rdf:resource="http://purl.org/dc/dcmitype/StillImage" /></cc:Work></rdf:RDF></metadata><g
     inkscape:label="Ebene 1"
     inkscape:groupmode="layer"
     id="layer1"
     transform="translate(-395.71431,-316.50506)"><path
       style="fill:#fb0000;fill-opacity:0.52549;stroke:#fb0000;stroke-width:0.0178571;stroke-opacity:0.776471"
       d="m 93.856183,219.01786 c -2.325895,-8.23566 -3.18984,-11.07903 -4.991748,-16.42857 -1.174408,-3.48661 -3.02281,-8.78027 -4.10756,-11.7637 l -1.972273,-5.42442 1.725165,-3.32558 c 0.94884,-1.82907 1.894032,-3.62399 2.100425,-3.98871 l 0.375261,-0.66312 1.717438,1.56027 c 1.578541,1.43408 1.943447,1.90555 4.511972,5.82971 l 2.794533,4.26945 -0.963135,15.36912 c -0.860299,13.72811 -0.987367,15.28332 -1.190078,14.56555 z"
       id="path3"
       transform="translate(395.71431,316.50506)" /><path
       style="fill:#fb0000;fill-opacity:0.52549;stroke:#fb0000;stroke-width:0.0178571;stroke-opacity:0.776471"
       d="m 106.8891,217.86365 c -0.008,-0.19285 -0.42244,-4.33124 -0.92152,-9.19643 l -0.90742,-8.84579 -1.79274,-5.53571 c -0.986,-3.04465 -1.80311,-5.59518 -1.81579,-5.66786 -0.0127,-0.0727 0.69282,-1.00404 1.56779,-2.06969 1.58539,-1.93091 1.59304,-1.94507 2.23214,-4.13304 l 0.6413,-2.1955 2.58151,-1.13545 c 1.41983,-0.62449 2.63805,-1.07569 2.70716,-1.00267 0.0691,0.073 1.05621,1.94609 2.19358,4.16236 l 2.06794,4.02959 -2.05361,6.41684 c -2.70727,8.4593 -4.68505,15.87075 -5.61987,21.0597 -0.77457,4.29946 -0.85744,4.68661 -0.88047,4.11365 z"
       id="path4"
       transform="translate(395.71431,316.50506)" /></g></svg>
