<?xml version="1.0" encoding="UTF-8" standalone="no"?>
<!-- Created with Inkscape (http://www.inkscape.org/) -->

<svg
   width="200"
   height="369"
   id="svg2"
   version="1.1"
   inkscape:version="1.4.2 (ebf0e940d0, 2025-05-08)"
   sodipodi:docname="muscle-19.svg"
   xml:space="preserve"
   xmlns:inkscape="http://www.inkscape.org/namespaces/inkscape"
   xmlns:sodipodi="http://sodipodi.sourceforge.net/DTD/sodipodi-0.dtd"
   xmlns="http://www.w3.org/2000/svg"
   xmlns:svg="http://www.w3.org/2000/svg"
   xmlns:rdf="http://www.w3.org/1999/02/22-rdf-syntax-ns#"
   xmlns:cc="http://creativecommons.org/ns#"
   xmlns:dc="http://purl.org/dc/elements/1.1/"><defs
     id="defs4"><linearGradient
       id="swatch84"
       inkscape:swatch="solid"><stop
         style="stop-color:#000000;stop-opacity:1;"
         offset="0"
         id="stop84" /></linearGradient></defs><sodipodi:namedview
     id="base"
     pagecolor="#ffffff"
     bordercolor="#666666"
     borderopacity="1.0"
     inkscape:pageopacity="0"
     inkscape:pageshadow="2"
     inkscape:zoom="3.959798"
     inkscape:cx="76.140248"
     inkscape:cy="158.97276"
     inkscape:document-units="px"
     inkscape:current-layer="layer1"
     showgrid="false"
     fit-margin-top="0"
     fit-margin-left="0"
     fit-margin-right="0"
     fit-margin-bottom="0"
     inkscape:window-width="1920"
     inkscape:window-height="1016"
     inkscape:window-x="0"
     inkscape:window-y="0"
     inkscape:window-maximized="1"
     height="524.41px"
     inkscape:showpageshadow="2"
     inkscape:pagecheckerboard="0"
     inkscape:deskcolor="#d1d1d1" /><metadata
     id="metadata7"><rdf:RDF><cc:Work
         rdf:about=""><dc:format>image/svg+xml</dc:format><dc:type
           rdf:resource="http://purl.org/dc/dcmitype/StillImage" /></cc:Work></rdf:RDF></metadata><g
     inkscape:label="Ebene 1"
     inkscape:groupmode="layer"
     id="layer1"
     transform="translate(-395.71431,-316.50506)"><path
       style="fill:#fb0000;fill-opacity:0.52549;stroke:#fb0000;stroke-width:0.0252538;stroke-opacity:0.776471"
       d="m 31.733435,178.79792 -2.611751,-2.07853 -2.304949,-0.174 c -1.267722,-0.0957 -2.35198,-0.22104 -2.409461,-0.27852 -0.05748,-0.0575 0.595627,-2.90363 1.451353,-6.32478 1.265866,-5.06086 1.857696,-6.91724 3.175208,-9.95958 1.046952,-2.41758 2.375486,-6.2696 3.758537,-10.8977 2.039389,-6.8244 2.275858,-7.43935 5.068422,-13.18074 1.806239,-3.71355 3.388126,-6.60695 4.126228,-7.5472 l 1.196999,-1.52484 0.46953,6.41078 c 0.258241,3.52593 0.496483,6.44068 0.529427,6.47722 0.03294,0.0365 0.932302,-0.33113 1.998572,-0.81704 l 1.938673,-0.88348 0.375549,0.81704 c 0.206551,0.44937 1.269403,3.02224 2.361891,5.71747 l 1.986341,4.90044 -1.565433,2.67571 c -0.860991,1.47164 -4.95579,8.47146 -9.099556,15.55515 -4.143766,7.0837 -7.601554,12.94958 -7.683974,13.03529 -0.08242,0.0857 -1.325143,-0.7795 -2.761606,-1.92269 z"
       id="path7"
       transform="translate(395.71431,316.50506)" /><path
       style="fill:#fb0000;fill-opacity:0.52549;stroke:#fb0000;stroke-width:0.0252538;stroke-opacity:0.776471"
       d="m 162.45314,177.35944 c -8.1151,-11.01804 -10.17345,-14.03872 -13.1737,-19.3328 -2.19693,-3.8766 -3.33692,-6.1704 -3.67763,-7.39991 l -0.49377,-1.78184 1.78798,-3.83803 c 0.98338,-2.11092 1.8128,-3.86809 1.84315,-3.90482 0.0303,-0.0367 1.32254,1.01637 2.87154,2.34022 2.66388,2.27669 2.81631,2.36918 2.8154,1.70828 -5.3e-4,-0.3843 -0.27478,-3.65342 -0.60944,-7.26472 -0.33467,-3.61129 -0.68304,-8.38426 -0.77417,-10.6066 l -0.16568,-4.04061 1.02416,1.45831 c 3.19204,4.54517 3.47418,5.10489 7.15724,14.19906 6.35557,15.69304 9.03311,22.80648 10.67793,28.36803 l 1.59321,5.38706 -0.89403,2.06624 -0.89403,2.06625 -3.54157,1.13299 c -1.94787,0.62315 -3.68688,1.16794 -3.86448,1.21066 -0.17759,0.0427 -0.93454,-0.75278 -1.68211,-1.76777 z"
       id="path8"
       transform="translate(395.71431,316.50506)" /></g></svg>
