<?xml version="1.0" encoding="UTF-8" standalone="no"?>
<!-- Created with Inkscape (http://www.inkscape.org/) -->

<svg
   width="200"
   height="369"
   id="svg2"
   version="1.1"
   inkscape:version="1.4.2 (ebf0e940d0, 2025-05-08)"
   sodipodi:docname="muscle-17.svg"
   xml:space="preserve"
   xmlns:inkscape="http://www.inkscape.org/namespaces/inkscape"
   xmlns:sodipodi="http://sodipodi.sourceforge.net/DTD/sodipodi-0.dtd"
   xmlns="http://www.w3.org/2000/svg"
   xmlns:svg="http://www.w3.org/2000/svg"
   xmlns:rdf="http://www.w3.org/1999/02/22-rdf-syntax-ns#"
   xmlns:cc="http://creativecommons.org/ns#"
   xmlns:dc="http://purl.org/dc/elements/1.1/"><defs
     id="defs4"><linearGradient
       id="swatch84"
       inkscape:swatch="solid"><stop
         style="stop-color:#000000;stop-opacity:1;"
         offset="0"
         id="stop84" /></linearGradient></defs><sodipodi:namedview
     id="base"
     pagecolor="#ffffff"
     bordercolor="#666666"
     borderopacity="1.0"
     inkscape:pageopacity="0.0"
     inkscape:pageshadow="2"
     inkscape:zoom="5.6"
     inkscape:cx="48.482143"
     inkscape:cy="111.69643"
     inkscape:document-units="px"
     inkscape:current-layer="svg2"
     showgrid="false"
     fit-margin-top="0"
     fit-margin-left="0"
     fit-margin-right="0"
     fit-margin-bottom="0"
     inkscape:window-width="1920"
     inkscape:window-height="1016"
     inkscape:window-x="0"
     inkscape:window-y="0"
     inkscape:window-maximized="1"
     height="524.41px"
     inkscape:showpageshadow="2"
     inkscape:pagecheckerboard="0"
     inkscape:deskcolor="#d1d1d1" /><metadata
     id="metadata7"><rdf:RDF><cc:Work
         rdf:about=""><dc:format>image/svg+xml</dc:format><dc:type
           rdf:resource="http://purl.org/dc/dcmitype/StillImage" /></cc:Work></rdf:RDF></metadata><path
     style="opacity:1;fill:#fb0000;fill-opacity:0.52549;stroke:#fb0000;stroke-width:0.0178571;stroke-dasharray:none;stroke-opacity:0.776471"
     d="m 121.44869,99.729509 c -1.95322,-0.385646 -3.57001,-0.72362 -3.59287,-0.751055 -0.0229,-0.02744 0.33548,-2.223316 0.79632,-4.879735 l 0.83789,-4.829853 2.65582,-5.21479 c 1.4607,-2.868135 2.71987,-5.21479 2.79816,-5.21479 0.0783,0 1.0872,0.606018 2.24202,1.346707 1.91794,1.230138 2.43023,1.689985 5.91842,5.3125 2.10031,2.181186 4.37478,4.534597 5.05439,5.229802 l 1.23565,1.264008 -0.31102,3.216569 -0.31102,3.216567 -5.99337,0.938336 c -3.29635,0.516086 -6.39515,0.967265 -6.88622,1.002625 -0.55832,0.0402 -2.22347,-0.19844 -4.44417,-0.636891 z"
     id="path101" /><path
     style="opacity:1;fill:#fb0000;fill-opacity:0.52549;stroke:#fb0000;stroke-width:0.0178571;stroke-dasharray:none;stroke-opacity:0.776471"
     d="M 79.898701,98.814452 C 76.998216,98.694343 72.1442,98.22117 70.831585,97.930584 c -0.639667,-0.141609 -1.385041,-0.700207 -4.253994,-3.188022 -1.91314,-1.658981 -3.49271,-3.056699 -3.510156,-3.106042 -0.03668,-0.103741 10.838054,-9.438843 13.087673,-11.234734 0.830438,-0.662947 1.605651,-1.205357 1.722695,-1.205357 0.197684,0 0.999119,1.173016 2.645376,3.871889 0.595751,0.976675 0.877357,1.921558 2.4412,8.191032 0.972269,3.897851 1.767764,7.190773 1.767764,7.317607 0,0.311048 -1.398184,0.379748 -4.833442,0.237495 z"
     id="path102" /></svg>
