<?xml version="1.0" encoding="UTF-8" standalone="no"?>
<!-- Created with Inkscape (http://www.inkscape.org/) -->

<svg
   width="200"
   height="369"
   id="svg2"
   version="1.1"
   inkscape:version="1.4.2 (ebf0e940d0, 2025-05-08)"
   sodipodi:docname="muscle-17.svg"
   xml:space="preserve"
   xmlns:inkscape="http://www.inkscape.org/namespaces/inkscape"
   xmlns:sodipodi="http://sodipodi.sourceforge.net/DTD/sodipodi-0.dtd"
   xmlns="http://www.w3.org/2000/svg"
   xmlns:svg="http://www.w3.org/2000/svg"
   xmlns:rdf="http://www.w3.org/1999/02/22-rdf-syntax-ns#"
   xmlns:cc="http://creativecommons.org/ns#"
   xmlns:dc="http://purl.org/dc/elements/1.1/"><defs
     id="defs4"><linearGradient
       id="swatch84"
       inkscape:swatch="solid"><stop
         style="stop-color:#000000;stop-opacity:1;"
         offset="0"
         id="stop84" /></linearGradient></defs><sodipodi:namedview
     id="base"
     pagecolor="#ffffff"
     bordercolor="#666666"
     borderopacity="1.0"
     inkscape:pageopacity="0.0"
     inkscape:pageshadow="2"
     inkscape:zoom="5.6"
     inkscape:cx="74.375"
     inkscape:cy="82.946429"
     inkscape:document-units="px"
     inkscape:current-layer="layer2"
     showgrid="false"
     fit-margin-top="0"
     fit-margin-left="0"
     fit-margin-right="0"
     fit-margin-bottom="0"
     inkscape:window-width="1920"
     inkscape:window-height="1016"
     inkscape:window-x="0"
     inkscape:window-y="0"
     inkscape:window-maximized="1"
     height="524.41px"
     inkscape:showpageshadow="2"
     inkscape:pagecheckerboard="0"
     inkscape:deskcolor="#d1d1d1" /><metadata
     id="metadata7"><rdf:RDF><cc:Work
         rdf:about=""><dc:format>image/svg+xml</dc:format><dc:type
           rdf:resource="http://purl.org/dc/dcmitype/StillImage" /></cc:Work></rdf:RDF></metadata><g
     inkscape:groupmode="layer"
     id="layer2"
     inkscape:label="Ebene 2"
     style="display:inline"><path
       style="fill:#fb0000;fill-opacity:0.52549;stroke-width:0;stroke-dasharray:none;opacity:1;stroke:none;stroke-opacity:0.7764706"
       d="m 44.480703,100.41414 c -0.05943,-0.915277 -0.182257,-4.09372 -0.272954,-7.063208 l -0.164904,-5.399066 1.202505,-4.24379 1.202505,-4.24379 3.060136,-4.295539 3.060137,-4.29554 3.894507,-1.760785 c 2.14198,-0.968433 4.015044,-1.753295 4.162365,-1.744139 0.27072,0.01682 3.408657,1.681573 9.082854,4.81866 l 3.100709,1.714287 1.676076,2.088039 c 0.921841,1.148422 1.676075,2.169999 1.676075,2.270171 0,0.364984 -8.875426,7.993023 -12.5,10.743198 -5.410543,4.105298 -17.619543,12.518302 -18.854175,12.992072 -0.157317,0.0604 -0.247785,-0.37848 -0.325836,-1.58057 z"
       id="path83" /><path
       style="fill:#fb0000;fill-opacity:0.52549;stroke-width:0.1;stroke:#fb0000;stroke-dasharray:none;stroke-opacity:0.7764706"
       d="m 152.85714,98.65093 c -2.16071,-1.49893 -6.62053,-4.57188 -9.91071,-6.82878 -3.29018,-2.2569 -6.74554,-4.688941 -7.67857,-5.404537 -1.8111,-1.389027 -9.34035,-7.858805 -9.42644,-8.10001 -0.0283,-0.07926 0.9908,-1.625235 2.26465,-3.435495 l 2.3161,-3.291383 3.67789,-1.468454 c 3.94955,-1.576916 6.17802,-2.354414 6.74824,-2.354414 0.19596,0 2.15849,0.939329 4.36118,2.087398 l 4.00489,2.087398 3.4601,4.661215 c 1.90305,2.563668 3.5432,4.858714 3.64477,5.100102 0.10158,0.241388 0.42372,1.6527 0.71588,3.136249 l 0.5312,2.697361 -0.26221,5.516925 c -0.14421,3.034308 -0.31985,6.148009 -0.3903,6.919338 l -0.1281,1.402417 z"
       id="path84" /></g></svg>
