<?xml version="1.0" encoding="UTF-8" standalone="no"?>
<!-- Created with Inkscape (http://www.inkscape.org/) -->

<svg
   width="200"
   height="369"
   id="svg2"
   version="1.1"
   inkscape:version="1.4.2 (ebf0e940d0, 2025-05-08)"
   sodipodi:docname="muscle-19.svg"
   xml:space="preserve"
   xmlns:inkscape="http://www.inkscape.org/namespaces/inkscape"
   xmlns:sodipodi="http://sodipodi.sourceforge.net/DTD/sodipodi-0.dtd"
   xmlns="http://www.w3.org/2000/svg"
   xmlns:svg="http://www.w3.org/2000/svg"
   xmlns:rdf="http://www.w3.org/1999/02/22-rdf-syntax-ns#"
   xmlns:cc="http://creativecommons.org/ns#"
   xmlns:dc="http://purl.org/dc/elements/1.1/"><defs
     id="defs4"><linearGradient
       id="swatch84"
       inkscape:swatch="solid"><stop
         style="stop-color:#000000;stop-opacity:1;"
         offset="0"
         id="stop84" /></linearGradient></defs><sodipodi:namedview
     id="base"
     pagecolor="#ffffff"
     bordercolor="#666666"
     borderopacity="1.0"
     inkscape:pageopacity="0"
     inkscape:pageshadow="2"
     inkscape:zoom="3.959798"
     inkscape:cx="76.140248"
     inkscape:cy="158.97276"
     inkscape:document-units="px"
     inkscape:current-layer="layer1"
     showgrid="false"
     fit-margin-top="0"
     fit-margin-left="0"
     fit-margin-right="0"
     fit-margin-bottom="0"
     inkscape:window-width="1920"
     inkscape:window-height="1016"
     inkscape:window-x="0"
     inkscape:window-y="0"
     inkscape:window-maximized="1"
     height="524.41px"
     inkscape:showpageshadow="2"
     inkscape:pagecheckerboard="0"
     inkscape:deskcolor="#d1d1d1" /><metadata
     id="metadata7"><rdf:RDF><cc:Work
         rdf:about=""><dc:format>image/svg+xml</dc:format><dc:type
           rdf:resource="http://purl.org/dc/dcmitype/StillImage" /></cc:Work></rdf:RDF></metadata><g
     inkscape:label="Ebene 1"
     inkscape:groupmode="layer"
     id="layer1"
     transform="translate(-395.71431,-316.50506)"><path
       style="fill:#f57a00;fill-opacity:0.52549;stroke:#fb0000;stroke-width:0.0252538;stroke-opacity:0.776471"
       d="m 31.737536,178.66859 -2.58819,-2.01666 -2.160067,-0.16604 c -1.407173,-0.10816 -2.203845,-0.28011 -2.285666,-0.49334 -0.344029,-0.89652 2.401408,-10.87237 4.405988,-16.00964 0.840064,-2.15289 2.226917,-6.13036 3.081896,-8.83883 0.854978,-2.70848 1.952152,-6.11774 2.438164,-7.57615 1.0205,-3.06228 5.941771,-13.11752 7.401982,-15.12387 l 0.990195,-1.36055 0.135618,0.85547 c 0.07459,0.47051 0.310743,3.2901 0.524786,6.26575 0.214042,2.97565 0.43834,5.45945 0.498439,5.51955 0.0601,0.0601 0.915668,-0.26243 1.901265,-0.71672 1.126033,-0.51902 1.880748,-0.73723 2.030814,-0.58716 0.271932,0.27193 4.541442,10.58379 4.541442,10.96864 0,0.30911 -17.637562,30.51957 -18.162553,31.1097 -0.09126,0.10258 -1.330608,-0.72099 -2.754113,-1.83015 z"
       id="path9"
       transform="translate(395.71431,316.50506)" /><path
       style="fill:#f57a00;fill-opacity:0.52549;stroke:#fb0000;stroke-width:0.0252538;stroke-opacity:0.776471"
       d="m 163.34315,178.35506 c -0.86296,-0.9505 -8.09996,-10.9921 -10.06418,-13.96441 -4.09433,-6.19565 -7.94746,-13.63001 -7.94111,-15.32187 0.002,-0.46278 3.04647,-7.37097 3.40808,-7.73258 0.0535,-0.0535 1.24404,0.85287 2.64559,2.01422 1.40154,1.16135 2.6579,2.14943 2.7919,2.19573 0.34388,0.11881 0.30993,-0.86524 -0.25617,-7.42476 -0.5192,-6.01608 -1.0399,-14.31113 -0.90671,-14.44432 0.21982,-0.21982 3.59482,5.27264 4.78028,7.7794 3.07966,6.5122 11.60876,28.53228 13.78809,35.59751 1.75079,5.67592 1.74052,5.56228 0.70713,7.82903 l -0.86332,1.89369 -3.43702,1.07328 c -1.89035,0.59031 -3.59444,1.07329 -3.78685,1.07329 -0.19241,0 -0.58198,-0.25569 -0.86571,-0.56821 z"
       id="path10"
       transform="translate(395.71431,316.50506)" /></g></svg>
