<?xml version="1.0" encoding="UTF-8" standalone="no"?>
<!-- Created with Inkscape (http://www.inkscape.org/) -->

<svg
   width="200"
   height="369"
   id="svg2"
   version="1.1"
   inkscape:version="1.4.2 (ebf0e940d0, 2025-05-08)"
   sodipodi:docname="muscle-17.svg"
   xml:space="preserve"
   xmlns:inkscape="http://www.inkscape.org/namespaces/inkscape"
   xmlns:sodipodi="http://sodipodi.sourceforge.net/DTD/sodipodi-0.dtd"
   xmlns="http://www.w3.org/2000/svg"
   xmlns:svg="http://www.w3.org/2000/svg"
   xmlns:rdf="http://www.w3.org/1999/02/22-rdf-syntax-ns#"
   xmlns:cc="http://creativecommons.org/ns#"
   xmlns:dc="http://purl.org/dc/elements/1.1/"><defs
     id="defs4"><linearGradient
       id="swatch84"
       inkscape:swatch="solid"><stop
         style="stop-color:#000000;stop-opacity:1;"
         offset="0"
         id="stop84" /></linearGradient></defs><sodipodi:namedview
     id="base"
     pagecolor="#ffffff"
     bordercolor="#666666"
     borderopacity="1.0"
     inkscape:pageopacity="0.0"
     inkscape:pageshadow="2"
     inkscape:zoom="5.6"
     inkscape:cx="77.589286"
     inkscape:cy="111.69643"
     inkscape:document-units="px"
     inkscape:current-layer="svg2"
     showgrid="false"
     fit-margin-top="0"
     fit-margin-left="0"
     fit-margin-right="0"
     fit-margin-bottom="0"
     inkscape:window-width="1920"
     inkscape:window-height="1016"
     inkscape:window-x="0"
     inkscape:window-y="0"
     inkscape:window-maximized="1"
     height="524.41px"
     inkscape:showpageshadow="2"
     inkscape:pagecheckerboard="0"
     inkscape:deskcolor="#d1d1d1" /><metadata
     id="metadata7"><rdf:RDF><cc:Work
         rdf:about=""><dc:format>image/svg+xml</dc:format><dc:type
           rdf:resource="http://purl.org/dc/dcmitype/StillImage" /></cc:Work></rdf:RDF></metadata><path
     style="fill:#f57a00;fill-opacity:0.52549;stroke:#fb0000;stroke-width:0.0178571;stroke-opacity:0.776471"
     d="m 79.196429,98.723946 c -0.34375,-0.032 -1.742541,-0.145714 -3.108424,-0.252694 C 74.722122,98.36427 72.89184,98.170268 72.020712,98.040136 70.160538,97.762254 70.02323,97.672813 65.785058,93.978263 63.221712,91.743713 63.116782,91.626104 63.426189,91.334363 65.03819,89.814398 76.30755,80.304214 77.346326,79.587194 l 0.560612,-0.386965 0.432294,0.578457 c 1.228227,1.643503 2.534131,3.982552 2.917866,5.22629 0.3735,1.210558 2.501173,9.586772 3.181256,12.52394 0.249384,1.07705 0.246684,1.102518 -0.127502,1.20292 -0.387959,0.104096 -3.970854,0.09857 -5.114423,-0.0079 z"
     id="path1" /><path
     style="fill:#f57a00;fill-opacity:0.52549;stroke:#fb0000;stroke-width:0.0178571;stroke-opacity:0.776471"
     d="m 124.10714,100.15473 c -0.19643,-0.0394 -1.66294,-0.32231 -3.25893,-0.628621 -1.68075,-0.32258 -2.9016,-0.640613 -2.90136,-0.755805 2.4e-4,-0.109381 0.35958,-2.299601 0.79855,-4.867155 l 0.79812,-4.668281 2.51861,-4.885291 c 1.38524,-2.68691 2.62798,-4.9979 2.76165,-5.135533 0.2076,-0.213759 0.42198,-0.143929 1.47048,0.478973 2.24122,1.331486 3.30944,2.283664 8.19989,7.309154 l 4.8513,4.985251 -0.30932,3.154789 c -0.17013,1.735134 -0.34428,3.182585 -0.38701,3.216557 -0.0829,0.0659 -0.4088,0.117602 -7.57769,1.202118 -4.23925,0.641314 -5.9859,0.790254 -6.96429,0.593844 z"
     id="path2" /></svg>
