<?xml version="1.0" encoding="UTF-8" standalone="no"?>
<!-- Created with Inkscape (http://www.inkscape.org/) -->

<svg
   width="200"
   height="369"
   id="svg2"
   version="1.1"
   inkscape:version="1.4.2 (ebf0e940d0, 2025-05-08)"
   sodipodi:docname="muscle-18.svg"
   xml:space="preserve"
   xmlns:inkscape="http://www.inkscape.org/namespaces/inkscape"
   xmlns:sodipodi="http://sodipodi.sourceforge.net/DTD/sodipodi-0.dtd"
   xmlns="http://www.w3.org/2000/svg"
   xmlns:svg="http://www.w3.org/2000/svg"
   xmlns:rdf="http://www.w3.org/1999/02/22-rdf-syntax-ns#"
   xmlns:cc="http://creativecommons.org/ns#"
   xmlns:dc="http://purl.org/dc/elements/1.1/"><defs
     id="defs4"><linearGradient
       id="swatch84"
       inkscape:swatch="solid"><stop
         style="stop-color:#000000;stop-opacity:1;"
         offset="0"
         id="stop84" /></linearGradient></defs><sodipodi:namedview
     id="base"
     pagecolor="#ffffff"
     bordercolor="#666666"
     borderopacity="1.0"
     inkscape:pageopacity="0.0"
     inkscape:pageshadow="2"
     inkscape:zoom="5.6"
     inkscape:cx="74.375"
     inkscape:cy="97.232143"
     inkscape:document-units="px"
     inkscape:current-layer="layer2"
     showgrid="false"
     fit-margin-top="0"
     fit-margin-left="0"
     fit-margin-right="0"
     fit-margin-bottom="0"
     inkscape:window-width="1920"
     inkscape:window-height="1016"
     inkscape:window-x="0"
     inkscape:window-y="0"
     inkscape:window-maximized="1"
     height="524.41px"
     inkscape:showpageshadow="2"
     inkscape:pagecheckerboard="0"
     inkscape:deskcolor="#d1d1d1" /><metadata
     id="metadata7"><rdf:RDF><cc:Work
         rdf:about=""><dc:format>image/svg+xml</dc:format><dc:type
           rdf:resource="http://purl.org/dc/dcmitype/StillImage" /></cc:Work></rdf:RDF></metadata><g
     inkscape:groupmode="layer"
     id="layer2"
     inkscape:label="Ebene 2"
     style="display:inline"><path
       style="fill:#f57a00;fill-opacity:0.52549;stroke:#fb0000;stroke-width:0.0178571;stroke-opacity:0.776471"
       d="m 44.649641,101.29464 c -0.134693,-0.79212 -0.45077,-8.832195 -0.451042,-11.473211 -2.16e-4,-2.091659 0.02703,-2.239679 1.140159,-6.195247 0.672358,-2.38925 1.308986,-4.294723 1.551204,-4.642857 2.740489,-3.938853 5.65295,-7.900787 5.950822,-8.095136 0.389722,-0.254275 5.449192,-2.539004 6.955141,-3.140766 l 0.867354,-0.346585 2.525503,1.329924 c 1.389027,0.731458 4.108513,2.201919 6.043302,3.267692 l 3.517796,1.937769 1.620518,2.049745 c 0.891284,1.127361 1.598072,2.166555 1.570638,2.309322 -0.106734,0.555446 -9.256375,8.360655 -13.556098,11.564189 -5.021779,3.741505 -17.064753,12.015521 -17.4888,12.015521 -0.0813,0 -0.19222,-0.26116 -0.246497,-0.58036 z"
       id="path2" /><path
       style="fill:#f57a00;fill-opacity:0.52549;stroke:#fb0000;stroke-width:0.0178571;stroke-opacity:0.776471"
       d="m 156.16571,100.80962 c -0.24279,-0.18439 -0.49553,-0.30183 -0.56165,-0.26096 -0.0661,0.0409 -0.16824,-0.0509 -0.22694,-0.20386 -0.0587,-0.15298 -0.18766,-0.22814 -0.28657,-0.16701 -0.0989,0.0611 -0.17984,0.0299 -0.17984,-0.0694 0,-0.213709 -1.60464,-1.351854 -1.61257,-1.143764 -0.003,0.07838 -0.0883,1.93e-4 -0.18955,-0.173748 -0.10126,-0.173942 -0.25953,-0.269645 -0.35171,-0.212677 -0.0922,0.05697 -0.16759,0.02234 -0.16759,-0.07695 0,-0.213713 -1.60465,-1.351857 -1.61258,-1.143768 -0.003,0.07838 -0.0883,1.93e-4 -0.18954,-0.173748 -0.10127,-0.173941 -0.25954,-0.269645 -0.35172,-0.212677 -0.0922,0.05697 -0.16759,0.0321 -0.16759,-0.05526 0,-0.201229 -1.60524,-1.363893 -1.61258,-1.167979 -0.003,0.07976 -0.0883,0.0027 -0.18954,-0.17123 -0.10127,-0.173941 -0.25112,-0.274848 -0.333,-0.224241 -0.0819,0.05061 -0.19692,-0.03315 -0.25562,-0.186134 -0.0587,-0.152982 -0.18766,-0.228134 -0.28657,-0.167007 -0.0989,0.06113 -0.17984,0.0299 -0.17984,-0.06939 0,-0.213712 -1.60464,-1.351857 -1.61257,-1.143768 -0.003,0.07838 -0.0883,1.93e-4 -0.18955,-0.173748 -0.10126,-0.173941 -0.25111,-0.274848 -0.333,-0.224241 -0.0819,0.05061 -0.19691,-0.03315 -0.25562,-0.186134 -0.0587,-0.152982 -0.18766,-0.228134 -0.28657,-0.167007 -0.0989,0.06113 -0.17983,0.0299 -0.17983,-0.06939 0,-0.09929 -0.36161,-0.429325 -0.80357,-0.733403 -0.44196,-0.304079 -0.80357,-0.493473 -0.80357,-0.420877 0,0.0726 -0.11798,-0.02399 -0.26218,-0.214636 -0.1442,-0.190646 -0.26473,-0.294301 -0.26786,-0.230342 -0.003,0.06396 -0.25492,-0.11654 -0.55955,-0.401104 -0.30462,-0.284566 -0.61763,-0.477982 -0.69557,-0.429814 -0.0779,0.04817 -0.18974,-0.03759 -0.24844,-0.190572 -0.0587,-0.152982 -0.18766,-0.228134 -0.28657,-0.167007 -0.0989,0.06113 -0.17983,0.03967 -0.17983,-0.0477 0,-0.08736 -0.36161,-0.418526 -0.80357,-0.735921 -0.44197,-0.317395 -0.80357,-0.51655 -0.80357,-0.44257 0,0.07398 -0.11798,-0.02147 -0.26218,-0.212117 -0.1442,-0.190647 -0.26474,-0.294302 -0.26786,-0.230343 -0.003,0.06396 -0.25778,-0.119209 -0.5659,-0.40704 -0.30812,-0.287828 -0.59401,-0.489544 -0.6353,-0.448255 -0.0413,0.04129 -0.32705,-0.155084 -0.63504,-0.436386 -0.30798,-0.2813 -0.58492,-0.486505 -0.61542,-0.45601 -0.0305,0.03049 -0.43249,-0.290724 -0.89332,-0.713816 -0.46084,-0.423095 -0.87124,-0.735905 -0.91201,-0.695137 -0.0408,0.04077 -0.27608,-0.165885 -0.52291,-0.45923 -0.24684,-0.293345 -0.48791,-0.494238 -0.53572,-0.446429 -0.0478,0.04781 -0.28888,-0.153083 -0.53571,-0.446428 -0.24683,-0.293345 -0.48654,-0.495607 -0.53267,-0.44947 -0.0461,0.04614 -0.32809,-0.19424 -0.62655,-0.53417 -0.29846,-0.33993 -0.57971,-0.581001 -0.625,-0.535714 -0.0453,0.04529 -0.32654,-0.195784 -0.625,-0.535714 -0.29846,-0.33993 -0.57861,-0.582104 -0.62255,-0.538164 -0.0439,0.04394 -0.36594,-0.236734 -0.71556,-0.623722 -0.34962,-0.386987 -0.67105,-0.668237 -0.71429,-0.625 -0.0432,0.04324 -0.36214,-0.235223 -0.70869,-0.618802 -0.34654,-0.383579 -0.69094,-0.659798 -0.76533,-0.613819 -0.0744,0.04598 -0.28663,-0.08696 -0.47163,-0.295425 -0.24379,-0.274712 -0.27463,-0.40061 -0.11204,-0.457469 0.12338,-0.04315 0.17891,-0.151942 0.12339,-0.241768 -0.0555,-0.08983 -0.0265,-0.16332 0.0645,-0.16332 0.091,0 0.37809,-0.321428 0.63807,-0.714286 0.25998,-0.392857 0.41601,-0.714285 0.34674,-0.714285 -0.0693,0 0.03,-0.11798 0.22068,-0.262178 0.19065,-0.144198 0.27101,-0.264734 0.17857,-0.267857 -0.0924,-0.0031 -0.0121,-0.12366 0.17857,-0.267858 0.19065,-0.144197 0.29431,-0.264733 0.23035,-0.267857 -0.064,-0.0031 0.11654,-0.25492 0.4011,-0.559548 0.28457,-0.304628 0.47798,-0.617637 0.42981,-0.695574 -0.0482,-0.07794 0.044,-0.192195 0.20482,-0.253906 0.16081,-0.06171 0.25128,-0.153307 0.20104,-0.203549 -0.0503,-0.05024 0.14151,-0.34063 0.42612,-0.645306 0.28461,-0.304676 0.47765,-0.593773 0.42899,-0.642439 -0.11369,-0.113689 0.69703,-0.755357 0.95436,-0.755357 0.10727,0 0.19504,-0.06326 0.19504,-0.140571 0,-0.07731 0.17358,-0.153645 0.38572,-0.169625 0.21215,-0.01598 0.43313,-0.09335 0.49107,-0.17193 0.058,-0.07858 0.22589,-0.165815 0.37321,-0.193853 0.37912,-0.07215 2.21413,-0.799439 2.32143,-0.920069 0.0491,-0.05521 0.25,-0.127831 0.44643,-0.161381 0.19643,-0.03355 0.38243,-0.129483 0.41332,-0.213183 0.0309,-0.0837 0.16117,-0.111896 0.28948,-0.06266 0.12831,0.04924 0.34482,-0.022 0.48113,-0.15831 0.13631,-0.136308 0.34756,-0.21459 0.46945,-0.17396 0.12189,0.04063 0.22162,-0.01318 0.22162,-0.119579 0,-0.106399 0.0603,-0.178144 0.13393,-0.159435 0.27255,0.06923 1.29464,-0.246364 1.29464,-0.399744 0,-0.08733 0.12054,-0.112525 0.26786,-0.05599 0.14732,0.05653 0.26786,0.01635 0.26786,-0.08929 0,-0.10564 0.12053,-0.145818 0.26785,-0.08929 0.14733,0.05653 0.26786,0.01635 0.26786,-0.08929 0,-0.10564 0.12054,-0.145819 0.26786,-0.08929 0.14732,0.05653 0.26786,0.0091 0.26786,-0.105429 0,-0.114518 0.0672,-0.166699 0.14927,-0.115958 0.0821,0.05074 0.44371,0.112087 0.80357,0.136322 0.35987,0.02424 0.6543,0.112741 0.6543,0.196677 0,0.08394 0.0735,0.107191 0.16332,0.05168 0.0898,-0.05552 0.19027,-0.02976 0.22321,0.05723 0.089,0.234943 3.30328,1.809006 3.43175,1.680541 0.0607,-0.06066 0.11029,-0.0118 0.11029,0.108582 0,0.120379 0.0804,0.169208 0.17857,0.108508 0.0982,-0.0607 0.17857,-0.02052 0.17857,0.08929 0,0.109807 0.0804,0.149986 0.17857,0.08929 0.0982,-0.0607 0.17858,-0.02052 0.17858,0.08929 0,0.109807 0.0803,0.149985 0.17857,0.08929 0.0982,-0.0607 0.17857,-0.03522 0.17857,0.05663 0,0.09184 0.55659,0.459473 1.23688,0.816951 0.90222,0.474105 1.41364,0.890767 1.8902,1.539977 0.35934,0.489509 0.73159,0.890016 0.82724,0.890016 0.0956,0 0.12763,0.07486 0.0711,0.166353 -0.0565,0.09149 0.0771,0.292387 0.29705,0.446429 0.21992,0.154041 0.32171,0.282748 0.2262,0.286016 -0.0955,0.0033 0.016,0.163982 0.24791,0.357143 0.23186,0.193161 0.3524,0.353875 0.26785,0.357142 -0.0845,0.0033 0.0306,0.159629 0.25591,0.347468 0.22529,0.18784 0.4069,0.406149 0.40358,0.485131 -0.0101,0.238543 1.07077,1.661461 1.26201,1.661461 0.0979,0 0.13175,0.07486 0.0752,0.166353 -0.0565,0.09149 0.0587,0.279505 0.25618,0.417802 0.19745,0.138298 0.31697,0.293481 0.2656,0.344853 -0.0514,0.05137 0.13945,0.342683 0.42406,0.647359 0.28461,0.304676 0.49003,0.581406 0.45648,0.614957 -0.0336,0.03355 0.15782,0.307276 0.42528,0.60828 0.26745,0.301003 0.51239,0.65807 0.54431,0.79348 0.0319,0.135411 0.12384,0.270143 0.20426,0.299406 0.0804,0.02926 0.1052,0.210066 0.0551,0.401786 -0.0501,0.191719 -0.009,0.348581 0.0915,0.348581 0.10048,0 0.14303,0.151645 0.0946,0.336989 -0.0485,0.185344 -0.008,0.386317 0.0892,0.446607 0.0976,0.06029 0.13535,0.270251 0.084,0.466582 -0.0529,0.202158 -0.005,0.356965 0.10946,0.356965 0.12715,0 0.161,0.166526 0.0907,0.446428 -0.0699,0.278471 -0.0363,0.446429 0.0893,0.446429 0.12559,0 0.15918,0.167958 0.0893,0.446428 -0.0699,0.27847 -0.0363,0.446429 0.0893,0.446429 0.12558,0 0.15917,0.167959 0.0893,0.446428 -0.0616,0.245536 -0.0431,0.446511 0.0412,0.446611 0.1706,2.02e-4 0.11813,1.995216 -0.23009,8.749818 -0.0481,0.933036 -0.10797,2.258929 -0.13303,2.946429 -0.0251,0.6875 -0.096,1.370535 -0.15761,1.517865 -0.0616,0.14732 -0.13607,0.44509 -0.16544,0.66172 -0.0529,0.38984 -0.0579,0.39044 -0.49483,0.0586 z"
       id="path3" /></g></svg>
