<?xml version="1.0" encoding="UTF-8" standalone="no"?>
<!-- Created with Inkscape (http://www.inkscape.org/) -->

<svg
   width="200"
   height="369"
   id="svg2"
   version="1.1"
   inkscape:version="1.4.2 (ebf0e940d0, 2025-05-08)"
   sodipodi:docname="muscle-20.svg"
   xml:space="preserve"
   xmlns:inkscape="http://www.inkscape.org/namespaces/inkscape"
   xmlns:sodipodi="http://sodipodi.sourceforge.net/DTD/sodipodi-0.dtd"
   xmlns="http://www.w3.org/2000/svg"
   xmlns:svg="http://www.w3.org/2000/svg"
   xmlns:rdf="http://www.w3.org/1999/02/22-rdf-syntax-ns#"
   xmlns:cc="http://creativecommons.org/ns#"
   xmlns:dc="http://purl.org/dc/elements/1.1/"><defs
     id="defs4"><linearGradient
       id="swatch84"
       inkscape:swatch="solid"><stop
         style="stop-color:#000000;stop-opacity:1;"
         offset="0"
         id="stop84" /></linearGradient></defs><sodipodi:namedview
     id="base"
     pagecolor="#ffffff"
     bordercolor="#666666"
     borderopacity="1.0"
     inkscape:pageopacity="0"
     inkscape:pageshadow="2"
     inkscape:zoom="5.6"
     inkscape:cx="81.875"
     inkscape:cy="192.41071"
     inkscape:document-units="px"
     inkscape:current-layer="layer1"
     showgrid="false"
     fit-margin-top="0"
     fit-margin-left="0"
     fit-margin-right="0"
     fit-margin-bottom="0"
     inkscape:window-width="1920"
     inkscape:window-height="1016"
     inkscape:window-x="0"
     inkscape:window-y="0"
     inkscape:window-maximized="1"
     height="524.41px"
     inkscape:showpageshadow="2"
     inkscape:pagecheckerboard="0"
     inkscape:deskcolor="#d1d1d1" /><metadata
     id="metadata7"><rdf:RDF><cc:Work
         rdf:about=""><dc:format>image/svg+xml</dc:format><dc:type
           rdf:resource="http://purl.org/dc/dcmitype/StillImage" /></cc:Work></rdf:RDF></metadata><g
     inkscape:label="Ebene 1"
     inkscape:groupmode="layer"
     id="layer1"
     transform="translate(-395.71431,-316.50506)"><path
       style="fill:#f57a00;fill-opacity:0.52549;stroke:#fb0000;stroke-width:0.0178571;stroke-opacity:0.776471"
       d="m 92.967647,215.70492 c -2.105719,-7.42997 -4.381841,-14.35616 -8.216251,-25.00189 -0.992732,-2.75618 -1.804967,-5.11757 -1.804967,-5.24751 0,-0.20356 3.448519,-6.97223 3.908141,-7.67081 0.129832,-0.19733 0.459129,0.0127 1.539972,0.98214 1.637249,1.46853 2.694508,2.84448 5.477895,7.12909 l 2.086723,3.21221 -0.697552,11.07092 c -0.739379,11.73476 -1.223902,18.69989 -1.306593,18.78258 -0.02759,0.0276 -0.471906,-1.43794 -0.987368,-3.25673 z"
       id="path1"
       transform="translate(395.71431,316.50506)" /><path
       style="fill:#f57a00;fill-opacity:0.52549;stroke:#fb0000;stroke-width:0.0178571;stroke-opacity:0.776471"
       d="m 106.8891,217.49454 c -0.008,-0.19943 -0.41108,-4.26406 -0.89628,-9.03251 l -0.88217,-8.66991 -1.80439,-5.56982 c -0.99242,-3.0634 -1.74508,-5.66841 -1.67259,-5.78891 0.0725,-0.12051 0.7087,-0.94232 1.41379,-1.82625 1.53678,-1.92655 1.67887,-2.1961 2.30628,-4.375 0.26866,-0.93303 0.58023,-1.7931 0.69237,-1.91127 0.18994,-0.20014 3.83372,-1.8211 4.69925,-2.09049 0.4284,-0.13334 0.5127,0.005 3.30896,5.43172 l 1.33492,2.59067 -1.31417,4.10576 c -3.2072,10.02003 -5.30265,17.77074 -6.39642,23.65933 -0.68634,3.69506 -0.76722,4.0512 -0.78955,3.47668 z"
       id="path2"
       transform="translate(395.71431,316.50506)" /></g></svg>
